0
SECTION
2
HEADER
9
$ACADVER
1
AC1006
0
ENDSEC
0
SECTION
2
TABLES
0
TABLE
2
LAYER
70
1
0
LAYER
70
0
62
1
6
CONTINUOUS
2
Inner Gates
0
ENDTAB
0
ENDSEC
0
SECTION
2
BLOCKS
0
BLOCK
2
DotGuide$1
70
0
10
0
20
0
0
POLYLINE
8
Inner Gates
70
1
40
0
41
0
66
1
0
VERTEX
8
Inner Gates
10
-0.5
20
69.5
0
VERTEX
8
Inner Gates
10
-0.5
20
70.5
0
VERTEX
8
Inner Gates
10
0.5
20
70.5
0
VERTEX
8
Inner Gates
10
0.5
20
69.5
0
SEQEND
0
POLYLINE
8
Inner Gates
70
1
40
0
41
0
66
1
0
VERTEX
8
Inner Gates
10
-24.24
20
65.138
0
VERTEX
8
Inner Gates
10
-24.582
20
66.077
0
VERTEX
8
Inner Gates
10
-23.643
20
66.419
0
VERTEX
8
Inner Gates
10
-23.301
20
65.48
0
SEQEND
0
POLYLINE
8
Inner Gates
70
1
40
0
41
0
66
1
0
VERTEX
8
Inner Gates
10
-45.057
20
52.919
0
VERTEX
8
Inner Gates
10
-45.7
20
53.685
0
VERTEX
8
Inner Gates
10
-44.934
20
54.328
0
VERTEX
8
Inner Gates
10
-44.291
20
53.561
0
SEQEND
0
POLYLINE
8
Inner Gates
70
1
40
0
41
0
66
1
0
VERTEX
8
Inner Gates
10
-60.439
20
34.317
0
VERTEX
8
Inner Gates
10
-61.305
20
34.817
0
VERTEX
8
Inner Gates
10
-60.805
20
35.683
0
VERTEX
8
Inner Gates
10
-59.939
20
35.183
0
SEQEND
0
POLYLINE
8
Inner Gates
70
1
40
0
41
0
66
1
0
VERTEX
8
Inner Gates
10
-68.531
20
11.576
0
VERTEX
8
Inner Gates
10
-69.516
20
11.75
0
VERTEX
8
Inner Gates
10
-69.342
20
12.735
0
VERTEX
8
Inner Gates
10
-68.357
20
12.561
0
SEQEND
0
POLYLINE
8
Inner Gates
70
1
40
0
41
0
66
1
0
VERTEX
8
Inner Gates
10
-69.342
20
-12.735
0
VERTEX
8
Inner Gates
10
-69.516
20
-11.75
0
VERTEX
8
Inner Gates
10
-68.531
20
-11.576
0
VERTEX
8
Inner Gates
10
-68.357
20
-12.561
0
SEQEND
0
POLYLINE
8
Inner Gates
70
1
40
0
41
0
66
1
0
VERTEX
8
Inner Gates
10
-60.805
20
-35.683
0
VERTEX
8
Inner Gates
10
-61.305
20
-34.817
0
VERTEX
8
Inner Gates
10
-60.439
20
-34.317
0
VERTEX
8
Inner Gates
10
-59.939
20
-35.183
0
SEQEND
0
POLYLINE
8
Inner Gates
70
1
40
0
41
0
66
1
0
VERTEX
8
Inner Gates
10
-44.934
20
-54.328
0
VERTEX
8
Inner Gates
10
-45.7
20
-53.685
0
VERTEX
8
Inner Gates
10
-45.057
20
-52.919
0
VERTEX
8
Inner Gates
10
-44.291
20
-53.561
0
SEQEND
0
POLYLINE
8
Inner Gates
70
1
40
0
41
0
66
1
0
VERTEX
8
Inner Gates
10
-23.643
20
-66.419
0
VERTEX
8
Inner Gates
10
-24.582
20
-66.077
0
VERTEX
8
Inner Gates
10
-24.24
20
-65.138
0
VERTEX
8
Inner Gates
10
-23.301
20
-65.48
0
SEQEND
0
POLYLINE
8
Inner Gates
70
1
40
0
41
0
66
1
0
VERTEX
8
Inner Gates
10
-0.5
20
-70.5
0
VERTEX
8
Inner Gates
10
-0.5
20
-69.5
0
VERTEX
8
Inner Gates
10
0.5
20
-69.5
0
VERTEX
8
Inner Gates
10
0.5
20
-70.5
0
SEQEND
0
POLYLINE
8
Inner Gates
70
1
40
0
41
0
66
1
0
VERTEX
8
Inner Gates
10
23.643
20
-66.419
0
VERTEX
8
Inner Gates
10
23.301
20
-65.48
0
VERTEX
8
Inner Gates
10
24.24
20
-65.138
0
VERTEX
8
Inner Gates
10
24.582
20
-66.077
0
SEQEND
0
POLYLINE
8
Inner Gates
70
1
40
0
41
0
66
1
0
VERTEX
8
Inner Gates
10
44.934
20
-54.328
0
VERTEX
8
Inner Gates
10
44.291
20
-53.561
0
VERTEX
8
Inner Gates
10
45.057
20
-52.919
0
VERTEX
8
Inner Gates
10
45.7
20
-53.685
0
SEQEND
0
POLYLINE
8
Inner Gates
70
1
40
0
41
0
66
1
0
VERTEX
8
Inner Gates
10
60.805
20
-35.683
0
VERTEX
8
Inner Gates
10
59.939
20
-35.183
0
VERTEX
8
Inner Gates
10
60.439
20
-34.317
0
VERTEX
8
Inner Gates
10
61.305
20
-34.817
0
SEQEND
0
POLYLINE
8
Inner Gates
70
1
40
0
41
0
66
1
0
VERTEX
8
Inner Gates
10
69.342
20
-12.735
0
VERTEX
8
Inner Gates
10
68.357
20
-12.561
0
VERTEX
8
Inner Gates
10
68.531
20
-11.576
0
VERTEX
8
Inner Gates
10
69.516
20
-11.75
0
SEQEND
0
POLYLINE
8
Inner Gates
70
1
40
0
41
0
66
1
0
VERTEX
8
Inner Gates
10
68.531
20
11.576
0
VERTEX
8
Inner Gates
10
68.357
20
12.561
0
VERTEX
8
Inner Gates
10
69.342
20
12.735
0
VERTEX
8
Inner Gates
10
69.516
20
11.75
0
SEQEND
0
POLYLINE
8
Inner Gates
70
1
40
0
41
0
66
1
0
VERTEX
8
Inner Gates
10
60.439
20
34.317
0
VERTEX
8
Inner Gates
10
59.939
20
35.183
0
VERTEX
8
Inner Gates
10
60.805
20
35.683
0
VERTEX
8
Inner Gates
10
61.305
20
34.817
0
SEQEND
0
POLYLINE
8
Inner Gates
70
1
40
0
41
0
66
1
0
VERTEX
8
Inner Gates
10
45.057
20
52.919
0
VERTEX
8
Inner Gates
10
44.291
20
53.561
0
VERTEX
8
Inner Gates
10
44.934
20
54.328
0
VERTEX
8
Inner Gates
10
45.7
20
53.685
0
SEQEND
0
POLYLINE
8
Inner Gates
70
1
40
0
41
0
66
1
0
VERTEX
8
Inner Gates
10
24.24
20
65.138
0
VERTEX
8
Inner Gates
10
23.301
20
65.48
0
VERTEX
8
Inner Gates
10
23.643
20
66.419
0
VERTEX
8
Inner Gates
10
24.582
20
66.077
0
SEQEND
0
ENDBLK
0
ENDSEC
0
SECTION
2
ENTITIES
0
INSERT
8
0
2
DotGuide$1
10
4.671
20
-7.665
41
1
42
1
50
90
0
POLYLINE
8
Inner Gates
70
1
40
0
41
0
66
1
0
VERTEX
8
Inner Gates
10
9.016
20
0.928
0
VERTEX
8
Inner Gates
10
8.979
20
0.951
0
VERTEX
8
Inner Gates
10
5.983
20
0.951
0
VERTEX
8
Inner Gates
10
5.983
20
0.947
0
VERTEX
8
Inner Gates
10
4.31
20
0.959
0
VERTEX
8
Inner Gates
10
1.349
20
0.959
0
VERTEX
8
Inner Gates
10
1.307
20
0.933
0
VERTEX
8
Inner Gates
10
0.547
20
0.933
0
VERTEX
8
Inner Gates
10
0.508
20
0.959
0
VERTEX
8
Inner Gates
10
0.349
20
0.959
0
VERTEX
8
Inner Gates
10
0.349
20
1.009
0
VERTEX
8
Inner Gates
10
0.373
20
1.009
0
VERTEX
8
Inner Gates
10
0.373
20
1.033
0
VERTEX
8
Inner Gates
10
0.423
20
1.033
0
VERTEX
8
Inner Gates
10
0.423
20
1.009
0
VERTEX
8
Inner Gates
10
0.509
20
1.009
0
VERTEX
8
Inner Gates
10
0.549
20
1.033
0
VERTEX
8
Inner Gates
10
1.308
20
1.033
0
VERTEX
8
Inner Gates
10
1.349
20
1.009
0
VERTEX
8
Inner Gates
10
1.8
20
1.01
0
VERTEX
8
Inner Gates
10
1.842
20
1.013
0
VERTEX
8
Inner Gates
10
1.847
20
1.012
0
VERTEX
8
Inner Gates
10
1.852
20
1.012
0
VERTEX
8
Inner Gates
10
1.857
20
1.013
0
VERTEX
8
Inner Gates
10
1.86
20
1.015
0
VERTEX
8
Inner Gates
10
1.861
20
1.015
0
VERTEX
8
Inner Gates
10
1.943
20
1.021
0
VERTEX
8
Inner Gates
10
2.052
20
1.05
0
VERTEX
8
Inner Gates
10
2.053
20
1.051
0
VERTEX
8
Inner Gates
10
2.627
20
1.157
0
VERTEX
8
Inner Gates
10
4.546
20
1.159
0
VERTEX
8
Inner Gates
10
4.546
20
1.154
0
VERTEX
8
Inner Gates
10
5.837
20
1.147
0
VERTEX
8
Inner Gates
10
5.837
20
1.151
0
VERTEX
8
Inner Gates
10
7.756
20
1.149
0
VERTEX
8
Inner Gates
10
8.33
20
1.043
0
VERTEX
8
Inner Gates
10
8.331
20
1.042
0
VERTEX
8
Inner Gates
10
8.44
20
1.013
0
VERTEX
8
Inner Gates
10
8.522
20
1.007
0
VERTEX
8
Inner Gates
10
8.523
20
1.007
0
VERTEX
8
Inner Gates
10
8.526
20
1.005
0
VERTEX
8
Inner Gates
10
8.531
20
1.004
0
VERTEX
8
Inner Gates
10
8.536
20
1.004
0
VERTEX
8
Inner Gates
10
8.541
20
1.005
0
VERTEX
8
Inner Gates
10
8.583
20
1.002
0
VERTEX
8
Inner Gates
10
8.974
20
1.001
0
VERTEX
8
Inner Gates
10
8.974
20
1.004
0
VERTEX
8
Inner Gates
10
9.015
20
1.028
0
VERTEX
8
Inner Gates
10
9.774
20
1.028
0
VERTEX
8
Inner Gates
10
9.819
20
1.001
0
VERTEX
8
Inner Gates
10
9.96
20
1.001
0
VERTEX
8
Inner Gates
10
9.96
20
1.025
0
VERTEX
8
Inner Gates
10
10.01
20
1.025
0
VERTEX
8
Inner Gates
10
10.01
20
1.001
0
VERTEX
8
Inner Gates
10
10.034
20
1.001
0
VERTEX
8
Inner Gates
10
10.034
20
0.951
0
VERTEX
8
Inner Gates
10
9.81
20
0.951
0
VERTEX
8
Inner Gates
10
9.776
20
0.928
0
SEQEND
0
POLYLINE
8
Inner Gates
70
1
40
0
41
0
66
1
0
VERTEX
8
Inner Gates
10
0.374
20
1.148
0
VERTEX
8
Inner Gates
10
0.374
20
1.149
0
VERTEX
8
Inner Gates
10
0.393
20
1.201
0
VERTEX
8
Inner Gates
10
0.43
20
1.301
0
VERTEX
8
Inner Gates
10
0.464
20
1.396
0
VERTEX
8
Inner Gates
10
0.565
20
2.505
0
VERTEX
8
Inner Gates
10
0.65
20
2.922
0
VERTEX
8
Inner Gates
10
0.648
20
2.932
0
VERTEX
8
Inner Gates
10
0.639
20
3.357
0
VERTEX
8
Inner Gates
10
0.578
20
3.542
0
VERTEX
8
Inner Gates
10
0.58
20
3.542
0
VERTEX
8
Inner Gates
10
0.577
20
3.555
0
VERTEX
8
Inner Gates
10
0.593
20
5.758
0
VERTEX
8
Inner Gates
10
-2.943
20
14.103
0
VERTEX
8
Inner Gates
10
-9.738
20
24.226
0
VERTEX
8
Inner Gates
10
-30.73
20
32.959
0
VERTEX
8
Inner Gates
10
-49.064
20
37.319
0
VERTEX
8
Inner Gates
10
-49.082
20
37.327
0
VERTEX
8
Inner Gates
10
-49.098
20
37.339
0
VERTEX
8
Inner Gates
10
-49.111
20
37.353
0
VERTEX
8
Inner Gates
10
-49.121
20
37.37
0
VERTEX
8
Inner Gates
10
-49.128
20
37.388
0
VERTEX
8
Inner Gates
10
-49.131
20
37.408
0
VERTEX
8
Inner Gates
10
-49.131
20
37.428
0
VERTEX
8
Inner Gates
10
-49.126
20
37.447
0
VERTEX
8
Inner Gates
10
-49.118
20
37.465
0
VERTEX
8
Inner Gates
10
-49.106
20
37.481
0
VERTEX
8
Inner Gates
10
-49.092
20
37.494
0
VERTEX
8
Inner Gates
10
-49.075
20
37.504
0
VERTEX
8
Inner Gates
10
-49.057
20
37.511
0
VERTEX
8
Inner Gates
10
-49.037
20
37.514
0
VERTEX
8
Inner Gates
10
-49.017
20
37.514
0
VERTEX
8
Inner Gates
10
-30.668
20
33.149
0
VERTEX
8
Inner Gates
10
-9.606
20
24.388
0
VERTEX
8
Inner Gates
10
-2.767
20
14.199
0
VERTEX
8
Inner Gates
10
0.793
20
5.798
0
VERTEX
8
Inner Gates
10
0.777
20
3.553
0
VERTEX
8
Inner Gates
10
0.773
20
3.534
0
VERTEX
8
Inner Gates
10
0.768
20
3.522
0
VERTEX
8
Inner Gates
10
0.739
20
3.302
0
VERTEX
8
Inner Gates
10
0.745
20
3.057
0
VERTEX
8
Inner Gates
10
0.729
20
2.898
0
VERTEX
8
Inner Gates
10
0.727
20
2.897
0
VERTEX
8
Inner Gates
10
0.645
20
2.493
0
VERTEX
8
Inner Gates
10
0.562
20
1.583
0
VERTEX
8
Inner Gates
10
0.561
20
1.581
0
VERTEX
8
Inner Gates
10
0.56
20
1.577
0
VERTEX
8
Inner Gates
10
0.56
20
1.572
0
VERTEX
8
Inner Gates
10
0.561
20
1.569
0
VERTEX
8
Inner Gates
10
0.543
20
1.378
0
VERTEX
8
Inner Gates
10
0.543
20
1.377
0
VERTEX
8
Inner Gates
10
0.441
20
1.179
0
VERTEX
8
Inner Gates
10
0.437
20
1.172
0
VERTEX
8
Inner Gates
10
0.423
20
1.148
0
SEQEND
0
POLYLINE
8
Inner Gates
70
1
40
0
41
0
66
1
0
VERTEX
8
Inner Gates
10
-61.063
20
-31.781
0
VERTEX
8
Inner Gates
10
-61.082
20
-31.778
0
VERTEX
8
Inner Gates
10
-61.101
20
-31.771
0
VERTEX
8
Inner Gates
10
-61.118
20
-31.761
0
VERTEX
8
Inner Gates
10
-61.132
20
-31.748
0
VERTEX
8
Inner Gates
10
-61.144
20
-31.732
0
VERTEX
8
Inner Gates
10
-61.152
20
-31.714
0
VERTEX
8
Inner Gates
10
-61.157
20
-31.695
0
VERTEX
8
Inner Gates
10
-61.157
20
-31.675
0
VERTEX
8
Inner Gates
10
-61.154
20
-31.656
0
VERTEX
8
Inner Gates
10
-61.147
20
-31.637
0
VERTEX
8
Inner Gates
10
-61.137
20
-31.62
0
VERTEX
8
Inner Gates
10
-33.193
20
-1.406
0
VERTEX
8
Inner Gates
10
-13.28
20
4.612
0
VERTEX
8
Inner Gates
10
-3.799
20
4.397
0
VERTEX
8
Inner Gates
10
-1.099
20
3.095
0
VERTEX
8
Inner Gates
10
-1.083
20
3.083
0
VERTEX
8
Inner Gates
10
-1.07
20
3.068
0
VERTEX
8
Inner Gates
10
-1.06
20
3.051
0
VERTEX
8
Inner Gates
10
-1.053
20
3.033
0
VERTEX
8
Inner Gates
10
-1.052
20
3.024
0
VERTEX
8
Inner Gates
10
-0.973
20
2.916
0
VERTEX
8
Inner Gates
10
-0.194
20
2.298
0
VERTEX
8
Inner Gates
10
0.173
20
1.706
0
VERTEX
8
Inner Gates
10
0.182
20
1.613
0
VERTEX
8
Inner Gates
10
0.181
20
1.607
0
VERTEX
8
Inner Gates
10
0.181
20
1.606
0
VERTEX
8
Inner Gates
10
0.183
20
1.51
0
VERTEX
8
Inner Gates
10
0.183
20
1.014
0
VERTEX
8
Inner Gates
10
0.188
20
1.009
0
VERTEX
8
Inner Gates
10
0.234
20
1.009
0
VERTEX
8
Inner Gates
10
0.234
20
0.959
0
VERTEX
8
Inner Gates
10
0.186
20
0.959
0
VERTEX
8
Inner Gates
10
0.183
20
0.955
0
VERTEX
8
Inner Gates
10
0.183
20
-0.035
0
VERTEX
8
Inner Gates
10
0.195
20
-0.21
0
VERTEX
8
Inner Gates
10
0.2
20
-0.224
0
VERTEX
8
Inner Gates
10
0.2
20
-1.25
0
VERTEX
8
Inner Gates
10
0.201
20
-1.253
0
VERTEX
8
Inner Gates
10
0.201
20
-1.35
0
VERTEX
8
Inner Gates
10
0.203
20
-1.641
0
VERTEX
8
Inner Gates
10
0.199
20
-1.66
0
VERTEX
8
Inner Gates
10
0.192
20
-1.679
0
VERTEX
8
Inner Gates
10
0.181
20
-1.695
0
VERTEX
8
Inner Gates
10
0.167
20
-1.709
0
VERTEX
8
Inner Gates
10
0.151
20
-1.72
0
VERTEX
8
Inner Gates
10
0.133
20
-1.728
0
VERTEX
8
Inner Gates
10
0.114
20
-1.732
0
VERTEX
8
Inner Gates
10
0.094
20
-1.732
0
VERTEX
8
Inner Gates
10
0.075
20
-1.728
0
VERTEX
8
Inner Gates
10
0.056
20
-1.721
0
VERTEX
8
Inner Gates
10
0.04
20
-1.71
0
VERTEX
8
Inner Gates
10
0.026
20
-1.696
0
VERTEX
8
Inner Gates
10
0.015
20
-1.68
0
VERTEX
8
Inner Gates
10
0.007
20
-1.662
0
VERTEX
8
Inner Gates
10
0.003
20
-1.643
0
VERTEX
8
Inner Gates
10
0.002
20
-1.498
0
VERTEX
8
Inner Gates
10
0.001
20
-1.493
0
VERTEX
8
Inner Gates
10
0.001
20
-1.356
0
VERTEX
8
Inner Gates
10
0
20
-1.356
0
VERTEX
8
Inner Gates
10
0
20
-1.206
0
VERTEX
8
Inner Gates
10
-0.001
20
-1.06
0
VERTEX
8
Inner Gates
10
0
20
-1.055
0
VERTEX
8
Inner Gates
10
0
20
-0.224
0
VERTEX
8
Inner Gates
10
0.008
20
-0.218
0
VERTEX
8
Inner Gates
10
0.109
20
-0.012
0
VERTEX
8
Inner Gates
10
0.109
20
-0.011
0
VERTEX
8
Inner Gates
10
0.133
20
0.055
0
VERTEX
8
Inner Gates
10
0.133
20
1.51
0
VERTEX
8
Inner Gates
10
0.112
20
1.61
0
VERTEX
8
Inner Gates
10
0.113
20
1.61
0
VERTEX
8
Inner Gates
10
0.105
20
1.682
0
VERTEX
8
Inner Gates
10
-0.248
20
2.25
0
VERTEX
8
Inner Gates
10
-1.03
20
2.872
0
VERTEX
8
Inner Gates
10
-1.169
20
2.909
0
VERTEX
8
Inner Gates
10
-1.168
20
2.91
0
VERTEX
8
Inner Gates
10
-1.186
20
2.915
0
VERTEX
8
Inner Gates
10
-3.847
20
4.199
0
VERTEX
8
Inner Gates
10
-13.252
20
4.412
0
VERTEX
8
Inner Gates
10
-33.083
20
-1.582
0
VERTEX
8
Inner Gates
10
-60.99
20
-31.756
0
VERTEX
8
Inner Gates
10
-61.006
20
-31.768
0
VERTEX
8
Inner Gates
10
-61.024
20
-31.776
0
VERTEX
8
Inner Gates
10
-61.043
20
-31.781
0
SEQEND
0
POLYLINE
8
Inner Gates
70
1
40
0
41
0
66
1
0
VERTEX
8
Inner Gates
10
16.852
20
-76.679
0
VERTEX
8
Inner Gates
10
16.832
20
-76.678
0
VERTEX
8
Inner Gates
10
16.813
20
-76.672
0
VERTEX
8
Inner Gates
10
16.796
20
-76.662
0
VERTEX
8
Inner Gates
10
16.781
20
-76.65
0
VERTEX
8
Inner Gates
10
16.768
20
-76.635
0
VERTEX
8
Inner Gates
10
16.759
20
-76.617
0
VERTEX
8
Inner Gates
10
16.753
20
-76.598
0
VERTEX
8
Inner Gates
10
16.752
20
-76.579
0
VERTEX
8
Inner Gates
10
20.445
20
-39.529
0
VERTEX
8
Inner Gates
10
17.289
20
-26.121
0
VERTEX
8
Inner Gates
10
16.257
20
-25.118
0
VERTEX
8
Inner Gates
10
16.246
20
-25.102
0
VERTEX
8
Inner Gates
10
16.238
20
-25.084
0
VERTEX
8
Inner Gates
10
16.237
20
-25.079
0
VERTEX
8
Inner Gates
10
13.904
20
-22.785
0
VERTEX
8
Inner Gates
10
13.908
20
-22.781
0
VERTEX
8
Inner Gates
10
10.272
20
-19.249
0
VERTEX
8
Inner Gates
10
10.217
20
-19.249
0
VERTEX
8
Inner Gates
10
10.217
20
-19.248
0
VERTEX
8
Inner Gates
10
5.571
20
-19.248
0
VERTEX
8
Inner Gates
10
5.571
20
-19.249
0
VERTEX
8
Inner Gates
10
4.271
20
-19.249
0
VERTEX
8
Inner Gates
10
4.231
20
-19.239
0
VERTEX
8
Inner Gates
10
4.191
20
-19.219
0
VERTEX
8
Inner Gates
10
4.171
20
-19.189
0
VERTEX
8
Inner Gates
10
4.171
20
-19.109
0
VERTEX
8
Inner Gates
10
4.191
20
-19.079
0
VERTEX
8
Inner Gates
10
4.231
20
-19.059
0
VERTEX
8
Inner Gates
10
4.271
20
-19.049
0
VERTEX
8
Inner Gates
10
5.14
20
-19.049
0
VERTEX
8
Inner Gates
10
5.14
20
-19.048
0
VERTEX
8
Inner Gates
10
10.217
20
-19.048
0
VERTEX
8
Inner Gates
10
10.217
20
-14.063
0
VERTEX
8
Inner Gates
10
10.218
20
-14.063
0
VERTEX
8
Inner Gates
10
10.218
20
-13.415
0
VERTEX
8
Inner Gates
10
10.217
20
-13.415
0
VERTEX
8
Inner Gates
10
10.217
20
-12.016
0
VERTEX
8
Inner Gates
10
10.517
20
-12.016
0
VERTEX
8
Inner Gates
10
10.517
20
-13.016
0
VERTEX
8
Inner Gates
10
10.398
20
-13.506
0
VERTEX
8
Inner Gates
10
10.398
20
-14.086
0
VERTEX
8
Inner Gates
10
10.4
20
-14.086
0
VERTEX
8
Inner Gates
10
10.4
20
-19.094
0
VERTEX
8
Inner Gates
10
14.104
20
-22.692
0
VERTEX
8
Inner Gates
10
14.099
20
-22.697
0
VERTEX
8
Inner Gates
10
16.946
20
-25.496
0
VERTEX
8
Inner Gates
10
16.94
20
-25.502
0
VERTEX
8
Inner Gates
10
17.471
20
-26.019
0
VERTEX
8
Inner Gates
10
20.647
20
-39.515
0
VERTEX
8
Inner Gates
10
16.951
20
-76.599
0
VERTEX
8
Inner Gates
10
16.945
20
-76.618
0
VERTEX
8
Inner Gates
10
16.935
20
-76.635
0
VERTEX
8
Inner Gates
10
16.923
20
-76.65
0
VERTEX
8
Inner Gates
10
16.908
20
-76.663
0
VERTEX
8
Inner Gates
10
16.89
20
-76.672
0
VERTEX
8
Inner Gates
10
16.871
20
-76.678
0
SEQEND
0
POLYLINE
8
Inner Gates
70
1
40
0
41
0
66
1
0
VERTEX
8
Inner Gates
10
10.273
20
-1.732
0
VERTEX
8
Inner Gates
10
10.254
20
-1.728
0
VERTEX
8
Inner Gates
10
10.235
20
-1.721
0
VERTEX
8
Inner Gates
10
10.219
20
-1.71
0
VERTEX
8
Inner Gates
10
10.205
20
-1.696
0
VERTEX
8
Inner Gates
10
10.194
20
-1.68
0
VERTEX
8
Inner Gates
10
10.186
20
-1.662
0
VERTEX
8
Inner Gates
10
10.182
20
-1.643
0
VERTEX
8
Inner Gates
10
10.181
20
-1.487
0
VERTEX
8
Inner Gates
10
10.18
20
-1.483
0
VERTEX
8
Inner Gates
10
10.18
20
-1.352
0
VERTEX
8
Inner Gates
10
10.178
20
-1.06
0
VERTEX
8
Inner Gates
10
10.18
20
-1.051
0
VERTEX
8
Inner Gates
10
10.18
20
-0.233
0
VERTEX
8
Inner Gates
10
10.181
20
-0.233
0
VERTEX
8
Inner Gates
10
10.181
20
-0.022
0
VERTEX
8
Inner Gates
10
10.18
20
-0.022
0
VERTEX
8
Inner Gates
10
10.18
20
0.951
0
VERTEX
8
Inner Gates
10
10.149
20
0.951
0
VERTEX
8
Inner Gates
10
10.149
20
1.001
0
VERTEX
8
Inner Gates
10
10.188
20
1.001
0
VERTEX
8
Inner Gates
10
10.199
20
1.012
0
VERTEX
8
Inner Gates
10
10.199
20
1.129
0
VERTEX
8
Inner Gates
10
10.188
20
1.14
0
VERTEX
8
Inner Gates
10
10.188
20
1.439
0
VERTEX
8
Inner Gates
10
10.187
20
1.466
0
VERTEX
8
Inner Gates
10
10.187
20
1.553
0
VERTEX
8
Inner Gates
10
10.188
20
1.557
0
VERTEX
8
Inner Gates
10
10.211
20
1.739
0
VERTEX
8
Inner Gates
10
10.342
20
2.308
0
VERTEX
8
Inner Gates
10
10.519
20
3.069
0
VERTEX
8
Inner Gates
10
10.518
20
3.076
0
VERTEX
8
Inner Gates
10
10.518
20
3.086
0
VERTEX
8
Inner Gates
10
10.52
20
3.095
0
VERTEX
8
Inner Gates
10
10.525
20
3.104
0
VERTEX
8
Inner Gates
10
10.53
20
3.112
0
VERTEX
8
Inner Gates
10
11.998
20
4.482
0
VERTEX
8
Inner Gates
10
12.123
20
4.664
0
VERTEX
8
Inner Gates
10
12.124
20
4.663
0
VERTEX
8
Inner Gates
10
12.125
20
4.664
0
VERTEX
8
Inner Gates
10
12.139
20
4.677
0
VERTEX
8
Inner Gates
10
12.156
20
4.687
0
VERTEX
8
Inner Gates
10
42.066
20
14.856
0
VERTEX
8
Inner Gates
10
70.546
20
16.24
0
VERTEX
8
Inner Gates
10
70.565
20
16.237
0
VERTEX
8
Inner Gates
10
70.584
20
16.231
0
VERTEX
8
Inner Gates
10
70.601
20
16.221
0
VERTEX
8
Inner Gates
10
70.615
20
16.207
0
VERTEX
8
Inner Gates
10
70.627
20
16.192
0
VERTEX
8
Inner Gates
10
70.636
20
16.174
0
VERTEX
8
Inner Gates
10
70.64
20
16.155
0
VERTEX
8
Inner Gates
10
70.641
20
16.135
0
VERTEX
8
Inner Gates
10
70.638
20
16.116
0
VERTEX
8
Inner Gates
10
70.632
20
16.097
0
VERTEX
8
Inner Gates
10
70.622
20
16.08
0
VERTEX
8
Inner Gates
10
70.608
20
16.066
0
VERTEX
8
Inner Gates
10
70.593
20
16.054
0
VERTEX
8
Inner Gates
10
70.575
20
16.045
0
VERTEX
8
Inner Gates
10
70.556
20
16.041
0
VERTEX
8
Inner Gates
10
42.104
20
14.658
0
VERTEX
8
Inner Gates
10
12.233
20
4.501
0
VERTEX
8
Inner Gates
10
12.052
20
4.395
0
VERTEX
8
Inner Gates
10
10.599
20
3.039
0
VERTEX
8
Inner Gates
10
10.593
20
3.036
0
VERTEX
8
Inner Gates
10
10.435
20
2.351
0
VERTEX
8
Inner Gates
10
10.434
20
2.349
0
VERTEX
8
Inner Gates
10
10.434
20
2.348
0
VERTEX
8
Inner Gates
10
10.433
20
2.343
0
VERTEX
8
Inner Gates
10
10.43
20
2.329
0
VERTEX
8
Inner Gates
10
10.428
20
2.321
0
VERTEX
8
Inner Gates
10
10.426
20
2.31
0
VERTEX
8
Inner Gates
10
10.319
20
1.85
0
VERTEX
8
Inner Gates
10
10.249
20
1.547
0
VERTEX
8
Inner Gates
10
10.249
20
0.014
0
VERTEX
8
Inner Gates
10
10.347
20
-0.192
0
VERTEX
8
Inner Gates
10
10.37
20
-0.221
0
VERTEX
8
Inner Gates
10
10.38
20
-0.251
0
VERTEX
8
Inner Gates
10
10.38
20
-1.35
0
VERTEX
8
Inner Gates
10
10.382
20
-1.641
0
VERTEX
8
Inner Gates
10
10.378
20
-1.66
0
VERTEX
8
Inner Gates
10
10.371
20
-1.679
0
VERTEX
8
Inner Gates
10
10.36
20
-1.695
0
VERTEX
8
Inner Gates
10
10.346
20
-1.709
0
VERTEX
8
Inner Gates
10
10.33
20
-1.72
0
VERTEX
8
Inner Gates
10
10.312
20
-1.728
0
VERTEX
8
Inner Gates
10
10.293
20
-1.732
0
SEQEND
0
POLYLINE
8
Inner Gates
70
1
40
0
41
0
66
1
0
VERTEX
8
Inner Gates
10
7.772
20
1.198
0
VERTEX
8
Inner Gates
10
7.762
20
1.201
0
VERTEX
8
Inner Gates
10
7.753
20
1.205
0
VERTEX
8
Inner Gates
10
7.745
20
1.211
0
VERTEX
8
Inner Gates
10
7.739
20
1.218
0
VERTEX
8
Inner Gates
10
7.734
20
1.226
0
VERTEX
8
Inner Gates
10
7.73
20
1.236
0
VERTEX
8
Inner Gates
10
7.729
20
1.245
0
VERTEX
8
Inner Gates
10
7.735
20
1.385
0
VERTEX
8
Inner Gates
10
7.763
20
1.608
0
VERTEX
8
Inner Gates
10
7.81
20
1.878
0
VERTEX
8
Inner Gates
10
7.845
20
2.042
0
VERTEX
8
Inner Gates
10
7.857
20
2.095
0
VERTEX
8
Inner Gates
10
7.857
20
2.109
0
VERTEX
8
Inner Gates
10
7.895
20
2.303
0
VERTEX
8
Inner Gates
10
7.971
20
2.485
0
VERTEX
8
Inner Gates
10
8.08
20
2.648
0
VERTEX
8
Inner Gates
10
8.207
20
2.775
0
VERTEX
8
Inner Gates
10
8.204
20
2.78
0
VERTEX
8
Inner Gates
10
7.453
20
4.983
0
VERTEX
8
Inner Gates
10
7.434
20
5.435
0
VERTEX
8
Inner Gates
10
7.386
20
5.608
0
VERTEX
8
Inner Gates
10
7.381
20
5.615
0
VERTEX
8
Inner Gates
10
7.372
20
5.632
0
VERTEX
8
Inner Gates
10
7.367
20
5.651
0
VERTEX
8
Inner Gates
10
7.366
20
5.671
0
VERTEX
8
Inner Gates
10
8.211
20
12.258
0
VERTEX
8
Inner Gates
10
8.208
20
12.268
0
VERTEX
8
Inner Gates
10
8.208
20
12.288
0
VERTEX
8
Inner Gates
10
16.825
20
61.217
0
VERTEX
8
Inner Gates
10
16.832
20
61.235
0
VERTEX
8
Inner Gates
10
16.843
20
61.252
0
VERTEX
8
Inner Gates
10
16.857
20
61.266
0
VERTEX
8
Inner Gates
10
16.873
20
61.278
0
VERTEX
8
Inner Gates
10
16.891
20
61.285
0
VERTEX
8
Inner Gates
10
16.91
20
61.29
0
VERTEX
8
Inner Gates
10
16.93
20
61.29
0
VERTEX
8
Inner Gates
10
16.949
20
61.287
0
VERTEX
8
Inner Gates
10
16.967
20
61.28
0
VERTEX
8
Inner Gates
10
16.984
20
61.269
0
VERTEX
8
Inner Gates
10
16.998
20
61.255
0
VERTEX
8
Inner Gates
10
17.01
20
61.239
0
VERTEX
8
Inner Gates
10
17.017
20
61.221
0
VERTEX
8
Inner Gates
10
17.022
20
61.202
0
VERTEX
8
Inner Gates
10
17.022
20
61.182
0
VERTEX
8
Inner Gates
10
8.423
20
12.353
0
VERTEX
8
Inner Gates
10
8.423
20
12.345
0
VERTEX
8
Inner Gates
10
7.564
20
5.646
0
VERTEX
8
Inner Gates
10
7.558
20
5.627
0
VERTEX
8
Inner Gates
10
7.536
20
5.403
0
VERTEX
8
Inner Gates
10
7.553
20
5.001
0
VERTEX
8
Inner Gates
10
8.291
20
2.835
0
VERTEX
8
Inner Gates
10
8.383
20
2.897
0
VERTEX
8
Inner Gates
10
8.565
20
2.973
0
VERTEX
8
Inner Gates
10
8.759
20
3.011
0
VERTEX
8
Inner Gates
10
8.955
20
3.011
0
VERTEX
8
Inner Gates
10
9.149
20
2.973
0
VERTEX
8
Inner Gates
10
9.331
20
2.897
0
VERTEX
8
Inner Gates
10
9.494
20
2.788
0
VERTEX
8
Inner Gates
10
9.634
20
2.648
0
VERTEX
8
Inner Gates
10
9.643
20
2.636
0
VERTEX
8
Inner Gates
10
9.644
20
2.635
0
VERTEX
8
Inner Gates
10
9.652
20
2.63
0
VERTEX
8
Inner Gates
10
9.659
20
2.623
0
VERTEX
8
Inner Gates
10
9.664
20
2.615
0
VERTEX
8
Inner Gates
10
9.668
20
2.606
0
VERTEX
8
Inner Gates
10
9.67
20
2.596
0
VERTEX
8
Inner Gates
10
9.67
20
2.586
0
VERTEX
8
Inner Gates
10
9.668
20
2.576
0
VERTEX
8
Inner Gates
10
9.664
20
2.567
0
VERTEX
8
Inner Gates
10
9.659
20
2.559
0
VERTEX
8
Inner Gates
10
9.652
20
2.552
0
VERTEX
8
Inner Gates
10
9.644
20
2.547
0
VERTEX
8
Inner Gates
10
9.635
20
2.543
0
VERTEX
8
Inner Gates
10
9.625
20
2.541
0
VERTEX
8
Inner Gates
10
9.615
20
2.541
0
VERTEX
8
Inner Gates
10
9.605
20
2.543
0
VERTEX
8
Inner Gates
10
9.596
20
2.547
0
VERTEX
8
Inner Gates
10
9.588
20
2.552
0
VERTEX
8
Inner Gates
10
9.581
20
2.559
0
VERTEX
8
Inner Gates
10
9.576
20
2.567
0
VERTEX
8
Inner Gates
10
9.575
20
2.57
0
VERTEX
8
Inner Gates
10
9.563
20
2.588
0
VERTEX
8
Inner Gates
10
9.438
20
2.713
0
VERTEX
8
Inner Gates
10
9.289
20
2.812
0
VERTEX
8
Inner Gates
10
9.126
20
2.879
0
VERTEX
8
Inner Gates
10
8.952
20
2.914
0
VERTEX
8
Inner Gates
10
8.774
20
2.914
0
VERTEX
8
Inner Gates
10
8.6
20
2.879
0
VERTEX
8
Inner Gates
10
8.437
20
2.811
0
VERTEX
8
Inner Gates
10
8.289
20
2.713
0
VERTEX
8
Inner Gates
10
8.164
20
2.588
0
VERTEX
8
Inner Gates
10
8.065
20
2.44
0
VERTEX
8
Inner Gates
10
7.999
20
2.277
0
VERTEX
8
Inner Gates
10
7.977
20
2.171
0
VERTEX
8
Inner Gates
10
7.977
20
2.17
0
VERTEX
8
Inner Gates
10
7.975
20
2.163
0
VERTEX
8
Inner Gates
10
7.963
20
2.103
0
VERTEX
8
Inner Gates
10
7.963
20
2.092
0
VERTEX
8
Inner Gates
10
7.895
20
1.783
0
VERTEX
8
Inner Gates
10
7.861
20
1.594
0
VERTEX
8
Inner Gates
10
7.835
20
1.377
0
VERTEX
8
Inner Gates
10
7.829
20
1.241
0
VERTEX
8
Inner Gates
10
7.826
20
1.231
0
VERTEX
8
Inner Gates
10
7.822
20
1.222
0
VERTEX
8
Inner Gates
10
7.816
20
1.214
0
VERTEX
8
Inner Gates
10
7.809
20
1.208
0
VERTEX
8
Inner Gates
10
7.801
20
1.203
0
VERTEX
8
Inner Gates
10
7.791
20
1.199
0
VERTEX
8
Inner Gates
10
7.782
20
1.198
0
SEQEND
0
POLYLINE
8
Inner Gates
70
1
40
0
41
0
66
1
0
VERTEX
8
Inner Gates
10
-65.266
20
-7.685
0
VERTEX
8
Inner Gates
10
-65.286
20
-7.682
0
VERTEX
8
Inner Gates
10
-65.304
20
-7.676
0
VERTEX
8
Inner Gates
10
-65.321
20
-7.666
0
VERTEX
8
Inner Gates
10
-65.336
20
-7.652
0
VERTEX
8
Inner Gates
10
-65.347
20
-7.636
0
VERTEX
8
Inner Gates
10
-65.356
20
-7.619
0
VERTEX
8
Inner Gates
10
-65.36
20
-7.599
0
VERTEX
8
Inner Gates
10
-65.361
20
-7.58
0
VERTEX
8
Inner Gates
10
-65.358
20
-7.56
0
VERTEX
8
Inner Gates
10
-65.352
20
-7.542
0
VERTEX
8
Inner Gates
10
-65.342
20
-7.525
0
VERTEX
8
Inner Gates
10
-65.328
20
-7.51
0
VERTEX
8
Inner Gates
10
-65.312
20
-7.499
0
VERTEX
8
Inner Gates
10
-34.331
20
7.058
0
VERTEX
8
Inner Gates
10
-12.558
20
8.909
0
VERTEX
8
Inner Gates
10
-2.109
20
5.105
0
VERTEX
8
Inner Gates
10
-0.383
20
3.235
0
VERTEX
8
Inner Gates
10
-0.373
20
3.218
0
VERTEX
8
Inner Gates
10
-0.366
20
3.199
0
VERTEX
8
Inner Gates
10
-0.363
20
3.18
0
VERTEX
8
Inner Gates
10
-0.363
20
3.16
0
VERTEX
8
Inner Gates
10
-0.365
20
3.151
0
VERTEX
8
Inner Gates
10
-0.345
20
3.02
0
VERTEX
8
Inner Gates
10
0.065
20
2.36
0
VERTEX
8
Inner Gates
10
0.287
20
1.699
0
VERTEX
8
Inner Gates
10
0.286
20
1.664
0
VERTEX
8
Inner Gates
10
0.248
20
1.265
0
VERTEX
8
Inner Gates
10
0.248
20
1.166
0
VERTEX
8
Inner Gates
10
0.28
20
1.122
0
VERTEX
8
Inner Gates
10
0.289
20
1.126
0
VERTEX
8
Inner Gates
10
0.299
20
1.128
0
VERTEX
8
Inner Gates
10
0.309
20
1.128
0
VERTEX
8
Inner Gates
10
0.319
20
1.126
0
VERTEX
8
Inner Gates
10
0.328
20
1.122
0
VERTEX
8
Inner Gates
10
0.336
20
1.117
0
VERTEX
8
Inner Gates
10
0.343
20
1.11
0
VERTEX
8
Inner Gates
10
0.348
20
1.102
0
VERTEX
8
Inner Gates
10
0.352
20
1.093
0
VERTEX
8
Inner Gates
10
0.354
20
1.083
0
VERTEX
8
Inner Gates
10
0.354
20
1.073
0
VERTEX
8
Inner Gates
10
0.352
20
1.063
0
VERTEX
8
Inner Gates
10
0.348
20
1.054
0
VERTEX
8
Inner Gates
10
0.343
20
1.046
0
VERTEX
8
Inner Gates
10
0.336
20
1.039
0
VERTEX
8
Inner Gates
10
0.328
20
1.034
0
VERTEX
8
Inner Gates
10
0.319
20
1.03
0
VERTEX
8
Inner Gates
10
0.309
20
1.028
0
VERTEX
8
Inner Gates
10
0.299
20
1.028
0
VERTEX
8
Inner Gates
10
0.289
20
1.03
0
VERTEX
8
Inner Gates
10
0.28
20
1.034
0
VERTEX
8
Inner Gates
10
0.272
20
1.039
0
VERTEX
8
Inner Gates
10
0.265
20
1.046
0
VERTEX
8
Inner Gates
10
0.26
20
1.054
0
VERTEX
8
Inner Gates
10
0.256
20
1.063
0
VERTEX
8
Inner Gates
10
0.254
20
1.073
0
VERTEX
8
Inner Gates
10
0.254
20
1.083
0
VERTEX
8
Inner Gates
10
0.256
20
1.093
0
VERTEX
8
Inner Gates
10
0.26
20
1.101
0
VERTEX
8
Inner Gates
10
0.218
20
1.166
0
VERTEX
8
Inner Gates
10
0.218
20
1.277
0
VERTEX
8
Inner Gates
10
0.219
20
1.297
0
VERTEX
8
Inner Gates
10
0.236
20
1.664
0
VERTEX
8
Inner Gates
10
0.236
20
1.665
0
VERTEX
8
Inner Gates
10
0.237
20
1.691
0
VERTEX
8
Inner Gates
10
0.019
20
2.338
0
VERTEX
8
Inner Gates
10
-0.377
20
2.975
0
VERTEX
8
Inner Gates
10
-0.502
20
3.082
0
VERTEX
8
Inner Gates
10
-0.514
20
3.087
0
VERTEX
8
Inner Gates
10
-0.53
20
3.099
0
VERTEX
8
Inner Gates
10
-2.223
20
4.933
0
VERTEX
8
Inner Gates
10
-12.584
20
8.705
0
VERTEX
8
Inner Gates
10
-34.279
20
6.862
0
VERTEX
8
Inner Gates
10
-65.227
20
-7.68
0
VERTEX
8
Inner Gates
10
-65.247
20
-7.684
0
SEQEND
0
POLYLINE
8
Inner Gates
70
1
40
0
41
0
66
1
0
VERTEX
8
Inner Gates
10
9.96
20
1.14
0
VERTEX
8
Inner Gates
10
9.96
20
1.526
0
VERTEX
8
Inner Gates
10
9.876
20
1.89
0
VERTEX
8
Inner Gates
10
9.875
20
1.893
0
VERTEX
8
Inner Gates
10
9.874
20
1.898
0
VERTEX
8
Inner Gates
10
9.851
20
1.999
0
VERTEX
8
Inner Gates
10
9.85
20
2.003
0
VERTEX
8
Inner Gates
10
9.849
20
2.005
0
VERTEX
8
Inner Gates
10
9.787
20
2.271
0
VERTEX
8
Inner Gates
10
9.773
20
2.331
0
VERTEX
8
Inner Gates
10
9.742
20
2.465
0
VERTEX
8
Inner Gates
10
9.675
20
2.759
0
VERTEX
8
Inner Gates
10
9.655
20
2.909
0
VERTEX
8
Inner Gates
10
9.639
20
3.068
0
VERTEX
8
Inner Gates
10
9.653
20
3.674
0
VERTEX
8
Inner Gates
10
9.679
20
3.83
0
VERTEX
8
Inner Gates
10
10.366
20
5.649
0
VERTEX
8
Inner Gates
10
10.375
20
5.83
0
VERTEX
8
Inner Gates
10
10.375
20
5.851
0
VERTEX
8
Inner Gates
10
10.378
20
5.87
0
VERTEX
8
Inner Gates
10
11.831
20
9.706
0
VERTEX
8
Inner Gates
10
25.474
20
30.031
0
VERTEX
8
Inner Gates
10
39.571
20
52.968
0
VERTEX
8
Inner Gates
10
39.584
20
52.982
0
VERTEX
8
Inner Gates
10
39.6
20
52.994
0
VERTEX
8
Inner Gates
10
39.618
20
53.002
0
VERTEX
8
Inner Gates
10
39.637
20
53.007
0
VERTEX
8
Inner Gates
10
39.657
20
53.007
0
VERTEX
8
Inner Gates
10
39.676
20
53.004
0
VERTEX
8
Inner Gates
10
39.695
20
52.997
0
VERTEX
8
Inner Gates
10
39.712
20
52.987
0
VERTEX
8
Inner Gates
10
39.726
20
52.974
0
VERTEX
8
Inner Gates
10
39.738
20
52.958
0
VERTEX
8
Inner Gates
10
39.746
20
52.94
0
VERTEX
8
Inner Gates
10
39.751
20
52.921
0
VERTEX
8
Inner Gates
10
39.751
20
52.901
0
VERTEX
8
Inner Gates
10
39.748
20
52.882
0
VERTEX
8
Inner Gates
10
39.741
20
52.863
0
VERTEX
8
Inner Gates
10
25.642
20
29.923
0
VERTEX
8
Inner Gates
10
12.009
20
9.614
0
VERTEX
8
Inner Gates
10
10.565
20
5.799
0
VERTEX
8
Inner Gates
10
10.555
20
5.783
0
VERTEX
8
Inner Gates
10
10.541
20
5.768
0
VERTEX
8
Inner Gates
10
10.536
20
5.765
0
VERTEX
8
Inner Gates
10
10.487
20
5.682
0
VERTEX
8
Inner Gates
10
9.754
20
3.743
0
VERTEX
8
Inner Gates
10
9.736
20
2.943
0
VERTEX
8
Inner Gates
10
9.736
20
2.923
0
VERTEX
8
Inner Gates
10
9.819
20
2.516
0
VERTEX
8
Inner Gates
10
9.825
20
2.447
0
VERTEX
8
Inner Gates
10
9.836
20
2.401
0
VERTEX
8
Inner Gates
10
9.898
20
2.135
0
VERTEX
8
Inner Gates
10
10.01
20
1.649
0
VERTEX
8
Inner Gates
10
10.01
20
1.14
0
SEQEND
0
POLYLINE
8
Inner Gates
70
1
40
0
41
0
66
1
0
VERTEX
8
Inner Gates
10
0
20
-9.049
0
VERTEX
8
Inner Gates
10
0
20
-2.269
0
VERTEX
8
Inner Gates
10
-0.001
20
-2.264
0
VERTEX
8
Inner Gates
10
-0.001
20
-2.024
0
VERTEX
8
Inner Gates
10
0.003
20
-2.005
0
VERTEX
8
Inner Gates
10
0.01
20
-1.987
0
VERTEX
8
Inner Gates
10
0.021
20
-1.97
0
VERTEX
8
Inner Gates
10
0.035
20
-1.956
0
VERTEX
8
Inner Gates
10
0.052
20
-1.945
0
VERTEX
8
Inner Gates
10
0.07
20
-1.938
0
VERTEX
8
Inner Gates
10
0.089
20
-1.934
0
VERTEX
8
Inner Gates
10
0.109
20
-1.934
0
VERTEX
8
Inner Gates
10
0.128
20
-1.938
0
VERTEX
8
Inner Gates
10
0.146
20
-1.945
0
VERTEX
8
Inner Gates
10
0.163
20
-1.956
0
VERTEX
8
Inner Gates
10
0.177
20
-1.97
0
VERTEX
8
Inner Gates
10
0.188
20
-1.987
0
VERTEX
8
Inner Gates
10
0.195
20
-2.005
0
VERTEX
8
Inner Gates
10
0.199
20
-2.024
0
VERTEX
8
Inner Gates
10
0.199
20
-2.135
0
VERTEX
8
Inner Gates
10
0.2
20
-2.135
0
VERTEX
8
Inner Gates
10
0.2
20
-9.049
0
SEQEND
0
POLYLINE
8
Inner Gates
70
1
40
0
41
0
66
1
0
VERTEX
8
Inner Gates
10
-7.331
20
-76.759
0
VERTEX
8
Inner Gates
10
-7.35
20
-76.758
0
VERTEX
8
Inner Gates
10
-7.369
20
-76.752
0
VERTEX
8
Inner Gates
10
-7.386
20
-76.743
0
VERTEX
8
Inner Gates
10
-7.402
20
-76.73
0
VERTEX
8
Inner Gates
10
-7.414
20
-76.715
0
VERTEX
8
Inner Gates
10
-7.424
20
-76.698
0
VERTEX
8
Inner Gates
10
-7.429
20
-76.679
0
VERTEX
8
Inner Gates
10
-7.431
20
-76.659
0
VERTEX
8
Inner Gates
10
-7.43
20
-76.64
0
VERTEX
8
Inner Gates
10
1.045
20
-48.219
0
VERTEX
8
Inner Gates
10
3.086
20
-27.429
0
VERTEX
8
Inner Gates
10
3.092
20
-27.411
0
VERTEX
8
Inner Gates
10
3.092
20
-23.753
0
VERTEX
8
Inner Gates
10
3.093
20
-23.753
0
VERTEX
8
Inner Gates
10
3.093
20
-19.249
0
VERTEX
8
Inner Gates
10
2.671
20
-19.249
0
VERTEX
8
Inner Gates
10
2.631
20
-19.239
0
VERTEX
8
Inner Gates
10
2.591
20
-19.219
0
VERTEX
8
Inner Gates
10
2.571
20
-19.189
0
VERTEX
8
Inner Gates
10
2.571
20
-19.109
0
VERTEX
8
Inner Gates
10
2.591
20
-19.079
0
VERTEX
8
Inner Gates
10
2.631
20
-19.059
0
VERTEX
8
Inner Gates
10
2.671
20
-19.049
0
VERTEX
8
Inner Gates
10
3.721
20
-19.049
0
VERTEX
8
Inner Gates
10
3.761
20
-19.059
0
VERTEX
8
Inner Gates
10
3.801
20
-19.079
0
VERTEX
8
Inner Gates
10
3.821
20
-19.109
0
VERTEX
8
Inner Gates
10
3.821
20
-19.189
0
VERTEX
8
Inner Gates
10
3.801
20
-19.219
0
VERTEX
8
Inner Gates
10
3.761
20
-19.239
0
VERTEX
8
Inner Gates
10
3.721
20
-19.249
0
VERTEX
8
Inner Gates
10
3.293
20
-19.249
0
VERTEX
8
Inner Gates
10
3.293
20
-23.838
0
VERTEX
8
Inner Gates
10
3.292
20
-23.838
0
VERTEX
8
Inner Gates
10
3.292
20
-27.553
0
VERTEX
8
Inner Gates
10
3.29
20
-27.553
0
VERTEX
8
Inner Gates
10
3.272
20
-27.583
0
VERTEX
8
Inner Gates
10
1.243
20
-48.257
0
VERTEX
8
Inner Gates
10
-7.238
20
-76.697
0
VERTEX
8
Inner Gates
10
-7.247
20
-76.714
0
VERTEX
8
Inner Gates
10
-7.26
20
-76.73
0
VERTEX
8
Inner Gates
10
-7.275
20
-76.742
0
VERTEX
8
Inner Gates
10
-7.292
20
-76.752
0
VERTEX
8
Inner Gates
10
-7.311
20
-76.757
0
SEQEND
0
POLYLINE
8
Inner Gates
70
1
40
0
41
0
66
1
0
VERTEX
8
Inner Gates
10
-30.156
20
-68.401
0
VERTEX
8
Inner Gates
10
-30.176
20
-68.398
0
VERTEX
8
Inner Gates
10
-30.194
20
-68.391
0
VERTEX
8
Inner Gates
10
-30.211
20
-68.38
0
VERTEX
8
Inner Gates
10
-30.225
20
-68.367
0
VERTEX
8
Inner Gates
10
-30.236
20
-68.351
0
VERTEX
8
Inner Gates
10
-30.244
20
-68.333
0
VERTEX
8
Inner Gates
10
-30.249
20
-68.314
0
VERTEX
8
Inner Gates
10
-30.249
20
-68.294
0
VERTEX
8
Inner Gates
10
-30.246
20
-68.274
0
VERTEX
8
Inner Gates
10
-14.352
20
-26.789
0
VERTEX
8
Inner Gates
10
-8.934
20
-11.553
0
VERTEX
8
Inner Gates
10
-6.052
20
-8.858
0
VERTEX
8
Inner Gates
10
-5.79
20
-8.833
0
VERTEX
8
Inner Gates
10
-5.77
20
-8.834
0
VERTEX
8
Inner Gates
10
-5.751
20
-8.84
0
VERTEX
8
Inner Gates
10
-5.736
20
-8.849
0
VERTEX
8
Inner Gates
10
5.565
20
-8.849
0
VERTEX
8
Inner Gates
10
5.605
20
-8.859
0
VERTEX
8
Inner Gates
10
5.645
20
-8.879
0
VERTEX
8
Inner Gates
10
5.665
20
-8.909
0
VERTEX
8
Inner Gates
10
5.665
20
-8.989
0
VERTEX
8
Inner Gates
10
5.645
20
-9.019
0
VERTEX
8
Inner Gates
10
5.605
20
-9.039
0
VERTEX
8
Inner Gates
10
5.565
20
-9.049
0
VERTEX
8
Inner Gates
10
-5.932
20
-9.049
0
VERTEX
8
Inner Gates
10
-5.932
20
-9.047
0
VERTEX
8
Inner Gates
10
-5.966
20
-9.05
0
VERTEX
8
Inner Gates
10
-8.762
20
-11.665
0
VERTEX
8
Inner Gates
10
-14.164
20
-26.859
0
VERTEX
8
Inner Gates
10
-30.059
20
-68.346
0
VERTEX
8
Inner Gates
10
-30.07
20
-68.363
0
VERTEX
8
Inner Gates
10
-30.083
20
-68.377
0
VERTEX
8
Inner Gates
10
-30.099
20
-68.388
0
VERTEX
8
Inner Gates
10
-30.117
20
-68.396
0
VERTEX
8
Inner Gates
10
-30.136
20
-68.401
0
SEQEND
0
POLYLINE
8
Inner Gates
70
1
40
0
41
0
66
1
0
VERTEX
8
Inner Gates
10
5.902
20
-11.982
0
VERTEX
8
Inner Gates
10
5.802
20
-11.943
0
VERTEX
8
Inner Gates
10
5.802
20
-9.491
0
VERTEX
8
Inner Gates
10
5.827
20
-9.462
0
VERTEX
8
Inner Gates
10
5.827
20
-8.431
0
VERTEX
8
Inner Gates
10
5.802
20
-8.393
0
VERTEX
8
Inner Gates
10
5.802
20
-3.366
0
VERTEX
8
Inner Gates
10
4.866
20
-3.352
0
VERTEX
8
Inner Gates
10
4.846
20
-3.341
0
VERTEX
8
Inner Gates
10
4.819
20
-3.311
0
VERTEX
8
Inner Gates
10
4.817
20
-3.309
0
VERTEX
8
Inner Gates
10
4.802
20
-3.292
0
VERTEX
8
Inner Gates
10
4.799
20
-3.289
0
VERTEX
8
Inner Gates
10
4.798
20
-3.287
0
VERTEX
8
Inner Gates
10
4.794
20
-3.281
0
VERTEX
8
Inner Gates
10
4.777
20
-3.259
0
VERTEX
8
Inner Gates
10
4.77
20
-3.249
0
VERTEX
8
Inner Gates
10
4.698
20
-3.153
0
VERTEX
8
Inner Gates
10
4.694
20
-3.144
0
VERTEX
8
Inner Gates
10
4.692
20
-3.137
0
VERTEX
8
Inner Gates
10
4.691
20
-3.135
0
VERTEX
8
Inner Gates
10
1.951
20
0.809
0
VERTEX
8
Inner Gates
10
1.38
20
0.809
0
VERTEX
8
Inner Gates
10
1.38
20
0.909
0
VERTEX
8
Inner Gates
10
2.18
20
0.909
0
VERTEX
8
Inner Gates
10
2.18
20
0.809
0
VERTEX
8
Inner Gates
10
2.178
20
0.809
0
VERTEX
8
Inner Gates
10
2.11
20
0.755
0
VERTEX
8
Inner Gates
10
4.796
20
-3.112
0
VERTEX
8
Inner Gates
10
4.8
20
-3.121
0
VERTEX
8
Inner Gates
10
4.8
20
-3.123
0
VERTEX
8
Inner Gates
10
4.891
20
-3.244
0
VERTEX
8
Inner Gates
10
4.895
20
-3.253
0
VERTEX
8
Inner Gates
10
5.824
20
-3.266
0
VERTEX
8
Inner Gates
10
8.24
20
0.756
0
VERTEX
8
Inner Gates
10
8.177
20
0.801
0
VERTEX
8
Inner Gates
10
8.177
20
0.901
0
VERTEX
8
Inner Gates
10
8.977
20
0.901
0
VERTEX
8
Inner Gates
10
8.977
20
0.801
0
VERTEX
8
Inner Gates
10
8.383
20
0.801
0
VERTEX
8
Inner Gates
10
6.012
20
-3.146
0
VERTEX
8
Inner Gates
10
6.013
20
-3.147
0
VERTEX
8
Inner Gates
10
5.901
20
-3.354
0
VERTEX
8
Inner Gates
10
5.902
20
-3.355
0
VERTEX
8
Inner Gates
10
5.902
20
-8.393
0
VERTEX
8
Inner Gates
10
5.901
20
-8.393
0
VERTEX
8
Inner Gates
10
5.877
20
-8.43
0
VERTEX
8
Inner Gates
10
5.877
20
-9.462
0
VERTEX
8
Inner Gates
10
5.902
20
-9.491
0
SEQEND
0
POLYLINE
8
Inner Gates
70
1
40
0
41
0
66
1
0
VERTEX
8
Inner Gates
10
2.601
20
1.206
0
VERTEX
8
Inner Gates
10
2.592
20
1.207
0
VERTEX
8
Inner Gates
10
2.582
20
1.211
0
VERTEX
8
Inner Gates
10
2.574
20
1.216
0
VERTEX
8
Inner Gates
10
2.567
20
1.222
0
VERTEX
8
Inner Gates
10
2.561
20
1.23
0
VERTEX
8
Inner Gates
10
2.557
20
1.239
0
VERTEX
8
Inner Gates
10
2.554
20
1.249
0
VERTEX
8
Inner Gates
10
2.548
20
1.385
0
VERTEX
8
Inner Gates
10
2.522
20
1.602
0
VERTEX
8
Inner Gates
10
2.488
20
1.791
0
VERTEX
8
Inner Gates
10
2.42
20
2.1
0
VERTEX
8
Inner Gates
10
2.42
20
2.111
0
VERTEX
8
Inner Gates
10
2.408
20
2.171
0
VERTEX
8
Inner Gates
10
2.406
20
2.178
0
VERTEX
8
Inner Gates
10
2.406
20
2.179
0
VERTEX
8
Inner Gates
10
2.384
20
2.285
0
VERTEX
8
Inner Gates
10
2.318
20
2.448
0
VERTEX
8
Inner Gates
10
2.219
20
2.596
0
VERTEX
8
Inner Gates
10
2.094
20
2.721
0
VERTEX
8
Inner Gates
10
1.946
20
2.819
0
VERTEX
8
Inner Gates
10
1.783
20
2.887
0
VERTEX
8
Inner Gates
10
1.609
20
2.922
0
VERTEX
8
Inner Gates
10
1.431
20
2.922
0
VERTEX
8
Inner Gates
10
1.257
20
2.887
0
VERTEX
8
Inner Gates
10
1.094
20
2.82
0
VERTEX
8
Inner Gates
10
0.945
20
2.721
0
VERTEX
8
Inner Gates
10
0.819
20
2.595
0
VERTEX
8
Inner Gates
10
0.818
20
2.588
0
VERTEX
8
Inner Gates
10
0.814
20
2.579
0
VERTEX
8
Inner Gates
10
0.809
20
2.571
0
VERTEX
8
Inner Gates
10
0.802
20
2.564
0
VERTEX
8
Inner Gates
10
0.794
20
2.559
0
VERTEX
8
Inner Gates
10
0.785
20
2.555
0
VERTEX
8
Inner Gates
10
0.775
20
2.553
0
VERTEX
8
Inner Gates
10
0.765
20
2.553
0
VERTEX
8
Inner Gates
10
0.755
20
2.555
0
VERTEX
8
Inner Gates
10
0.746
20
2.559
0
VERTEX
8
Inner Gates
10
0.738
20
2.564
0
VERTEX
8
Inner Gates
10
0.731
20
2.571
0
VERTEX
8
Inner Gates
10
0.726
20
2.579
0
VERTEX
8
Inner Gates
10
0.722
20
2.588
0
VERTEX
8
Inner Gates
10
0.72
20
2.598
0
VERTEX
8
Inner Gates
10
0.72
20
2.608
0
VERTEX
8
Inner Gates
10
0.722
20
2.618
0
VERTEX
8
Inner Gates
10
0.726
20
2.627
0
VERTEX
8
Inner Gates
10
0.731
20
2.635
0
VERTEX
8
Inner Gates
10
0.738
20
2.642
0
VERTEX
8
Inner Gates
10
0.74
20
2.643
0
VERTEX
8
Inner Gates
10
0.749
20
2.656
0
VERTEX
8
Inner Gates
10
0.889
20
2.796
0
VERTEX
8
Inner Gates
10
1.052
20
2.905
0
VERTEX
8
Inner Gates
10
1.234
20
2.981
0
VERTEX
8
Inner Gates
10
1.428
20
3.019
0
VERTEX
8
Inner Gates
10
1.624
20
3.019
0
VERTEX
8
Inner Gates
10
1.818
20
2.981
0
VERTEX
8
Inner Gates
10
1.955
20
2.924
0
VERTEX
8
Inner Gates
10
2.415
20
5.112
0
VERTEX
8
Inner Gates
10
2.415
20
5.398
0
VERTEX
8
Inner Gates
10
2.385
20
5.628
0
VERTEX
8
Inner Gates
10
2.372
20
5.667
0
VERTEX
8
Inner Gates
10
2.369
20
5.672
0
VERTEX
8
Inner Gates
10
2.363
20
5.691
0
VERTEX
8
Inner Gates
10
1.65
20
12.783
0
VERTEX
8
Inner Gates
10
1.65
20
12.784
0
VERTEX
8
Inner Gates
10
-4.798
20
32.067
0
VERTEX
8
Inner Gates
10
-30.323
20
52.797
0
VERTEX
8
Inner Gates
10
-30.335
20
52.812
0
VERTEX
8
Inner Gates
10
-30.345
20
52.829
0
VERTEX
8
Inner Gates
10
-30.35
20
52.848
0
VERTEX
8
Inner Gates
10
-30.352
20
52.867
0
VERTEX
8
Inner Gates
10
-30.351
20
52.887
0
VERTEX
8
Inner Gates
10
-30.345
20
52.906
0
VERTEX
8
Inner Gates
10
-30.336
20
52.923
0
VERTEX
8
Inner Gates
10
-30.323
20
52.939
0
VERTEX
8
Inner Gates
10
-30.308
20
52.951
0
VERTEX
8
Inner Gates
10
-30.291
20
52.961
0
VERTEX
8
Inner Gates
10
-30.272
20
52.966
0
VERTEX
8
Inner Gates
10
-30.253
20
52.968
0
VERTEX
8
Inner Gates
10
-30.233
20
52.967
0
VERTEX
8
Inner Gates
10
-30.214
20
52.961
0
VERTEX
8
Inner Gates
10
-30.197
20
52.952
0
VERTEX
8
Inner Gates
10
-4.626
20
32.185
0
VERTEX
8
Inner Gates
10
1.775
20
13.04
0
VERTEX
8
Inner Gates
10
1.789
20
13.033
0
VERTEX
8
Inner Gates
10
1.804
20
13.02
0
VERTEX
8
Inner Gates
10
1.816
20
13.005
0
VERTEX
8
Inner Gates
10
1.826
20
12.988
0
VERTEX
8
Inner Gates
10
1.832
20
12.969
0
VERTEX
8
Inner Gates
10
2.562
20
5.711
0
VERTEX
8
Inner Gates
10
2.561
20
5.692
0
VERTEX
8
Inner Gates
10
2.56
20
5.69
0
VERTEX
8
Inner Gates
10
2.56
20
5.687
0
VERTEX
8
Inner Gates
10
2.515
20
5.429
0
VERTEX
8
Inner Gates
10
2.515
20
5.102
0
VERTEX
8
Inner Gates
10
2.047
20
2.874
0
VERTEX
8
Inner Gates
10
2.163
20
2.796
0
VERTEX
8
Inner Gates
10
2.303
20
2.656
0
VERTEX
8
Inner Gates
10
2.412
20
2.493
0
VERTEX
8
Inner Gates
10
2.488
20
2.311
0
VERTEX
8
Inner Gates
10
2.526
20
2.117
0
VERTEX
8
Inner Gates
10
2.526
20
2.103
0
VERTEX
8
Inner Gates
10
2.538
20
2.05
0
VERTEX
8
Inner Gates
10
2.573
20
1.886
0
VERTEX
8
Inner Gates
10
2.62
20
1.616
0
VERTEX
8
Inner Gates
10
2.648
20
1.393
0
VERTEX
8
Inner Gates
10
2.654
20
1.253
0
VERTEX
8
Inner Gates
10
2.653
20
1.244
0
VERTEX
8
Inner Gates
10
2.649
20
1.234
0
VERTEX
8
Inner Gates
10
2.644
20
1.226
0
VERTEX
8
Inner Gates
10
2.638
20
1.219
0
VERTEX
8
Inner Gates
10
2.63
20
1.213
0
VERTEX
8
Inner Gates
10
2.621
20
1.209
0
VERTEX
8
Inner Gates
10
2.611
20
1.206
0
SEQEND
0
POLYLINE
8
Inner Gates
70
1
40
0
41
0
66
1
0
VERTEX
8
Inner Gates
10
0.283
20
1.192
0
VERTEX
8
Inner Gates
10
0.283
20
1.242
0
VERTEX
8
Inner Gates
10
0.307
20
1.242
0
VERTEX
8
Inner Gates
10
0.341
20
1.403
0
VERTEX
8
Inner Gates
10
0.367
20
1.696
0
VERTEX
8
Inner Gates
10
0.283
20
2.413
0
VERTEX
8
Inner Gates
10
0.107
20
3.053
0
VERTEX
8
Inner Gates
10
-0.018
20
3.232
0
VERTEX
8
Inner Gates
10
-0.015
20
3.233
0
VERTEX
8
Inner Gates
10
-0.024
20
3.248
0
VERTEX
8
Inner Gates
10
-0.75
20
5.408
0
VERTEX
8
Inner Gates
10
-10.73
20
14.749
0
VERTEX
8
Inner Gates
10
-34.472
20
18.66
0
VERTEX
8
Inner Gates
10
-61.3
20
16.152
0
VERTEX
8
Inner Gates
10
-61.32
20
16.154
0
VERTEX
8
Inner Gates
10
-61.339
20
16.159
0
VERTEX
8
Inner Gates
10
-61.356
20
16.169
0
VERTEX
8
Inner Gates
10
-61.371
20
16.181
0
VERTEX
8
Inner Gates
10
-61.384
20
16.197
0
VERTEX
8
Inner Gates
10
-61.393
20
16.214
0
VERTEX
8
Inner Gates
10
-61.399
20
16.233
0
VERTEX
8
Inner Gates
10
-61.4
20
16.252
0
VERTEX
8
Inner Gates
10
-61.398
20
16.272
0
VERTEX
8
Inner Gates
10
-61.393
20
16.291
0
VERTEX
8
Inner Gates
10
-61.383
20
16.308
0
VERTEX
8
Inner Gates
10
-61.371
20
16.323
0
VERTEX
8
Inner Gates
10
-61.355
20
16.336
0
VERTEX
8
Inner Gates
10
-61.338
20
16.345
0
VERTEX
8
Inner Gates
10
-61.319
20
16.351
0
VERTEX
8
Inner Gates
10
-34.464
20
18.862
0
VERTEX
8
Inner Gates
10
-10.704
20
14.947
0
VERTEX
8
Inner Gates
10
-10.702
20
14.948
0
VERTEX
8
Inner Gates
10
-10.682
20
14.948
0
VERTEX
8
Inner Gates
10
-10.663
20
14.945
0
VERTEX
8
Inner Gates
10
-10.645
20
14.938
0
VERTEX
8
Inner Gates
10
-10.628
20
14.928
0
VERTEX
8
Inner Gates
10
-10.618
20
14.922
0
VERTEX
8
Inner Gates
10
-10.603
20
14.908
0
VERTEX
8
Inner Gates
10
-10.596
20
14.898
0
VERTEX
8
Inner Gates
10
-0.576
20
5.52
0
VERTEX
8
Inner Gates
10
0.166
20
3.312
0
VERTEX
8
Inner Gates
10
0.168
20
3.292
0
VERTEX
8
Inner Gates
10
0.167
20
3.272
0
VERTEX
8
Inner Gates
10
0.162
20
3.253
0
VERTEX
8
Inner Gates
10
0.16
20
3.249
0
VERTEX
8
Inner Gates
10
0.155
20
3.067
0
VERTEX
8
Inner Gates
10
0.333
20
2.423
0
VERTEX
8
Inner Gates
10
0.417
20
1.696
0
VERTEX
8
Inner Gates
10
0.391
20
1.395
0
VERTEX
8
Inner Gates
10
0.358
20
1.243
0
VERTEX
8
Inner Gates
10
0.374
20
1.243
0
VERTEX
8
Inner Gates
10
0.355
20
1.192
0
SEQEND
0
POLYLINE
8
Inner Gates
70
1
40
0
41
0
66
1
0
VERTEX
8
Inner Gates
10
10.045
20
1.184
0
VERTEX
8
Inner Gates
10
10.045
20
1.234
0
VERTEX
8
Inner Gates
10
10.074
20
1.234
0
VERTEX
8
Inner Gates
10
10.074
20
2.925
0
VERTEX
8
Inner Gates
10
10.046
20
3.036
0
VERTEX
8
Inner Gates
10
10.047
20
3.036
0
VERTEX
8
Inner Gates
10
10.047
20
3.037
0
VERTEX
8
Inner Gates
10
10.046
20
3.047
0
VERTEX
8
Inner Gates
10
10.046
20
3.057
0
VERTEX
8
Inner Gates
10
10.122
20
3.372
0
VERTEX
8
Inner Gates
10
11.041
20
4.902
0
VERTEX
8
Inner Gates
10
11.099
20
5.07
0
VERTEX
8
Inner Gates
10
11.101
20
5.085
0
VERTEX
8
Inner Gates
10
11.107
20
5.104
0
VERTEX
8
Inner Gates
10
11.117
20
5.121
0
VERTEX
8
Inner Gates
10
11.13
20
5.136
0
VERTEX
8
Inner Gates
10
35.335
20
23.936
0
VERTEX
8
Inner Gates
10
58.203
20
37.257
0
VERTEX
8
Inner Gates
10
58.222
20
37.264
0
VERTEX
8
Inner Gates
10
58.241
20
37.266
0
VERTEX
8
Inner Gates
10
58.261
20
37.265
0
VERTEX
8
Inner Gates
10
58.28
20
37.26
0
VERTEX
8
Inner Gates
10
58.298
20
37.252
0
VERTEX
8
Inner Gates
10
58.313
20
37.24
0
VERTEX
8
Inner Gates
10
58.326
20
37.225
0
VERTEX
8
Inner Gates
10
58.336
20
37.208
0
VERTEX
8
Inner Gates
10
58.343
20
37.189
0
VERTEX
8
Inner Gates
10
58.345
20
37.17
0
VERTEX
8
Inner Gates
10
58.344
20
37.15
0
VERTEX
8
Inner Gates
10
58.339
20
37.131
0
VERTEX
8
Inner Gates
10
58.331
20
37.113
0
VERTEX
8
Inner Gates
10
58.319
20
37.098
0
VERTEX
8
Inner Gates
10
58.304
20
37.085
0
VERTEX
8
Inner Gates
10
35.447
20
23.77
0
VERTEX
8
Inner Gates
10
11.325
20
5.034
0
VERTEX
8
Inner Gates
10
11.3
20
5.001
0
VERTEX
8
Inner Gates
10
11.29
20
4.997
0
VERTEX
8
Inner Gates
10
11.137
20
4.867
0
VERTEX
8
Inner Gates
10
10.216
20
3.334
0
VERTEX
8
Inner Gates
10
10.143
20
3.034
0
VERTEX
8
Inner Gates
10
10.14
20
3.027
0
VERTEX
8
Inner Gates
10
10.139
20
3.025
0
VERTEX
8
Inner Gates
10
10.124
20
2.931
0
VERTEX
8
Inner Gates
10
10.124
20
1.234
0
VERTEX
8
Inner Gates
10
10.153
20
1.234
0
VERTEX
8
Inner Gates
10
10.153
20
1.184
0
SEQEND
0
POLYLINE
8
Inner Gates
70
1
40
0
41
0
66
1
0
VERTEX
8
Inner Gates
10
5.05
20
1.058
0
VERTEX
8
Inner Gates
10
5.05
20
4.876
0
VERTEX
8
Inner Gates
10
4.999
20
5.083
0
VERTEX
8
Inner Gates
10
4.997
20
5.086
0
VERTEX
8
Inner Gates
10
4.997
20
10.579
0
VERTEX
8
Inner Gates
10
3.922
20
34.86
0
VERTEX
8
Inner Gates
10
-7.591
20
61.304
0
VERTEX
8
Inner Gates
10
-7.595
20
61.323
0
VERTEX
8
Inner Gates
10
-7.595
20
61.343
0
VERTEX
8
Inner Gates
10
-7.592
20
61.362
0
VERTEX
8
Inner Gates
10
-7.584
20
61.381
0
VERTEX
8
Inner Gates
10
-7.574
20
61.397
0
VERTEX
8
Inner Gates
10
-7.56
20
61.412
0
VERTEX
8
Inner Gates
10
-7.544
20
61.423
0
VERTEX
8
Inner Gates
10
-7.526
20
61.431
0
VERTEX
8
Inner Gates
10
-7.507
20
61.435
0
VERTEX
8
Inner Gates
10
-7.487
20
61.435
0
VERTEX
8
Inner Gates
10
-7.468
20
61.432
0
VERTEX
8
Inner Gates
10
-7.449
20
61.424
0
VERTEX
8
Inner Gates
10
-7.433
20
61.414
0
VERTEX
8
Inner Gates
10
-7.418
20
61.4
0
VERTEX
8
Inner Gates
10
-7.407
20
61.384
0
VERTEX
8
Inner Gates
10
4.12
20
34.906
0
VERTEX
8
Inner Gates
10
5.192
20
10.669
0
VERTEX
8
Inner Gates
10
5.197
20
10.668
0
VERTEX
8
Inner Gates
10
5.197
20
10.566
0
VERTEX
8
Inner Gates
10
5.198
20
10.543
0
VERTEX
8
Inner Gates
10
5.197
20
10.536
0
VERTEX
8
Inner Gates
10
5.197
20
5.086
0
VERTEX
8
Inner Gates
10
5.194
20
5.08
0
VERTEX
8
Inner Gates
10
5.15
20
4.856
0
VERTEX
8
Inner Gates
10
5.15
20
1.058
0
SEQEND
0
POLYLINE
8
Inner Gates
70
1
40
0
41
0
66
1
0
VERTEX
8
Inner Gates
10
10.449
20
0.981
0
VERTEX
8
Inner Gates
10
10.399
20
1.031
0
VERTEX
8
Inner Gates
10
10.399
20
1.131
0
VERTEX
8
Inner Gates
10
10.449
20
1.181
0
VERTEX
8
Inner Gates
10
16.432
20
1.181
0
VERTEX
8
Inner Gates
10
16.807
20
1.183
0
VERTEX
8
Inner Gates
10
20.628
20
1.206
0
VERTEX
8
Inner Gates
10
20.653
20
1.006
0
VERTEX
8
Inner Gates
10
16.805
20
0.983
0
VERTEX
8
Inner Gates
10
16.468
20
0.981
0
SEQEND
0
POLYLINE
8
Inner Gates
70
1
40
0
41
0
66
1
0
VERTEX
8
Inner Gates
10
-48.889
20
-52.72
0
VERTEX
8
Inner Gates
10
-48.908
20
-52.719
0
VERTEX
8
Inner Gates
10
-48.927
20
-52.713
0
VERTEX
8
Inner Gates
10
-48.945
20
-52.704
0
VERTEX
8
Inner Gates
10
-48.96
20
-52.692
0
VERTEX
8
Inner Gates
10
-48.973
20
-52.677
0
VERTEX
8
Inner Gates
10
-48.982
20
-52.66
0
VERTEX
8
Inner Gates
10
-48.988
20
-52.641
0
VERTEX
8
Inner Gates
10
-48.99
20
-52.621
0
VERTEX
8
Inner Gates
10
-48.989
20
-52.602
0
VERTEX
8
Inner Gates
10
-48.983
20
-52.583
0
VERTEX
8
Inner Gates
10
-29.156
20
-14.374
0
VERTEX
8
Inner Gates
10
-12.845
20
-1.036
0
VERTEX
8
Inner Gates
10
-7.103
20
1.218
0
VERTEX
8
Inner Gates
10
-6.347
20
1.231
0
VERTEX
8
Inner Gates
10
-6.328
20
1.228
0
VERTEX
8
Inner Gates
10
-6.32
20
1.225
0
VERTEX
8
Inner Gates
10
-6.066
20
1.188
0
VERTEX
8
Inner Gates
10
-0.067
20
1.188
0
VERTEX
8
Inner Gates
10
-0.017
20
1.138
0
VERTEX
8
Inner Gates
10
-0.017
20
1.038
0
VERTEX
8
Inner Gates
10
-0.067
20
0.988
0
VERTEX
8
Inner Gates
10
-6.086
20
0.988
0
VERTEX
8
Inner Gates
10
-6.423
20
0.99
0
VERTEX
8
Inner Gates
10
-6.423
20
0.992
0
VERTEX
8
Inner Gates
10
-6.558
20
1.027
0
VERTEX
8
Inner Gates
10
-7.063
20
1.018
0
VERTEX
8
Inner Gates
10
-12.743
20
-1.21
0
VERTEX
8
Inner Gates
10
-28.998
20
-14.502
0
VERTEX
8
Inner Gates
10
-48.806
20
-52.675
0
VERTEX
8
Inner Gates
10
-48.818
20
-52.69
0
VERTEX
8
Inner Gates
10
-48.833
20
-52.703
0
VERTEX
8
Inner Gates
10
-48.85
20
-52.712
0
VERTEX
8
Inner Gates
10
-48.869
20
-52.718
0
SEQEND
0
POLYLINE
8
Inner Gates
70
1
40
0
41
0
66
1
0
VERTEX
8
Inner Gates
10
0
20
-19.249
0
VERTEX
8
Inner Gates
10
0
20
-8.849
0
VERTEX
8
Inner Gates
10
0.2
20
-8.849
0
VERTEX
8
Inner Gates
10
0.2
20
-19.049
0
VERTEX
8
Inner Gates
10
2.121
20
-19.049
0
VERTEX
8
Inner Gates
10
2.161
20
-19.059
0
VERTEX
8
Inner Gates
10
2.201
20
-19.079
0
VERTEX
8
Inner Gates
10
2.221
20
-19.109
0
VERTEX
8
Inner Gates
10
2.221
20
-19.189
0
VERTEX
8
Inner Gates
10
2.201
20
-19.219
0
VERTEX
8
Inner Gates
10
2.161
20
-19.239
0
VERTEX
8
Inner Gates
10
2.121
20
-19.249
0
SEQEND
0
POLYLINE
8
Inner Gates
70
1
40
0
41
0
66
1
0
VERTEX
8
Inner Gates
10
70.507
20
-31.719
0
VERTEX
8
Inner Gates
10
70.487
20
-31.717
0
VERTEX
8
Inner Gates
10
70.468
20
-31.712
0
VERTEX
8
Inner Gates
10
70.451
20
-31.702
0
VERTEX
8
Inner Gates
10
70.436
20
-31.69
0
VERTEX
8
Inner Gates
10
51.316
20
-8.219
0
VERTEX
8
Inner Gates
10
19.637
20
-7.371
0
VERTEX
8
Inner Gates
10
19.605
20
-7.392
0
VERTEX
8
Inner Gates
10
19.603
20
-7.386
0
VERTEX
8
Inner Gates
10
19.603
20
-7.391
0
VERTEX
8
Inner Gates
10
10.382
20
-7.264
0
VERTEX
8
Inner Gates
10
10.382
20
-8.799
0
VERTEX
8
Inner Gates
10
10.182
20
-8.799
0
VERTEX
8
Inner Gates
10
10.18
20
-2.033
0
VERTEX
8
Inner Gates
10
10.19
20
-1.993
0
VERTEX
8
Inner Gates
10
10.21
20
-1.953
0
VERTEX
8
Inner Gates
10
10.24
20
-1.933
0
VERTEX
8
Inner Gates
10
10.32
20
-1.933
0
VERTEX
8
Inner Gates
10
10.35
20
-1.953
0
VERTEX
8
Inner Gates
10
10.37
20
-1.993
0
VERTEX
8
Inner Gates
10
10.38
20
-2.033
0
VERTEX
8
Inner Gates
10
10.382
20
-7.064
0
VERTEX
8
Inner Gates
10
19.434
20
-7.189
0
VERTEX
8
Inner Gates
10
19.435
20
-7.188
0
VERTEX
8
Inner Gates
10
19.452
20
-7.177
0
VERTEX
8
Inner Gates
10
19.47
20
-7.17
0
VERTEX
8
Inner Gates
10
19.49
20
-7.167
0
VERTEX
8
Inner Gates
10
51.414
20
-8.021
0
VERTEX
8
Inner Gates
10
70.591
20
-31.563
0
VERTEX
8
Inner Gates
10
70.6
20
-31.581
0
VERTEX
8
Inner Gates
10
70.606
20
-31.6
0
VERTEX
8
Inner Gates
10
70.607
20
-31.619
0
VERTEX
8
Inner Gates
10
70.605
20
-31.639
0
VERTEX
8
Inner Gates
10
70.6
20
-31.658
0
VERTEX
8
Inner Gates
10
70.59
20
-31.675
0
VERTEX
8
Inner Gates
10
70.578
20
-31.69
0
VERTEX
8
Inner Gates
10
70.563
20
-31.703
0
VERTEX
8
Inner Gates
10
70.545
20
-31.712
0
VERTEX
8
Inner Gates
10
70.526
20
-31.718
0
SEQEND
0
POLYLINE
8
Inner Gates
70
1
40
0
41
0
66
1
0
VERTEX
8
Inner Gates
10
58.134
20
-52.85
0
VERTEX
8
Inner Gates
10
58.114
20
-52.848
0
VERTEX
8
Inner Gates
10
58.096
20
-52.842
0
VERTEX
8
Inner Gates
10
58.079
20
-52.832
0
VERTEX
8
Inner Gates
10
58.064
20
-52.82
0
VERTEX
8
Inner Gates
10
58.051
20
-52.804
0
VERTEX
8
Inner Gates
10
58.042
20
-52.787
0
VERTEX
8
Inner Gates
10
49.574
20
-22.713
0
VERTEX
8
Inner Gates
10
35.204
20
-12.29
0
VERTEX
8
Inner Gates
10
20.058
20
-9.049
0
VERTEX
8
Inner Gates
10
6.115
20
-9.049
0
VERTEX
8
Inner Gates
10
6.075
20
-9.039
0
VERTEX
8
Inner Gates
10
6.035
20
-9.019
0
VERTEX
8
Inner Gates
10
6.015
20
-8.989
0
VERTEX
8
Inner Gates
10
6.015
20
-8.909
0
VERTEX
8
Inner Gates
10
6.035
20
-8.879
0
VERTEX
8
Inner Gates
10
6.075
20
-8.859
0
VERTEX
8
Inner Gates
10
6.115
20
-8.849
0
VERTEX
8
Inner Gates
10
19.994
20
-8.849
0
VERTEX
8
Inner Gates
10
20.005
20
-8.844
0
VERTEX
8
Inner Gates
10
20.025
20
-8.841
0
VERTEX
8
Inner Gates
10
20.044
20
-8.841
0
VERTEX
8
Inner Gates
10
20.081
20
-8.849
0
VERTEX
8
Inner Gates
10
20.14
20
-8.849
0
VERTEX
8
Inner Gates
10
20.14
20
-8.85
0
VERTEX
8
Inner Gates
10
20.183
20
-8.871
0
VERTEX
8
Inner Gates
10
35.288
20
-12.104
0
VERTEX
8
Inner Gates
10
49.748
20
-22.591
0
VERTEX
8
Inner Gates
10
58.235
20
-52.732
0
VERTEX
8
Inner Gates
10
58.236
20
-52.752
0
VERTEX
8
Inner Gates
10
58.234
20
-52.772
0
VERTEX
8
Inner Gates
10
58.228
20
-52.79
0
VERTEX
8
Inner Gates
10
58.218
20
-52.807
0
VERTEX
8
Inner Gates
10
58.206
20
-52.822
0
VERTEX
8
Inner Gates
10
58.19
20
-52.835
0
VERTEX
8
Inner Gates
10
58.173
20
-52.844
0
VERTEX
8
Inner Gates
10
58.154
20
-52.849
0
SEQEND
0
POLYLINE
8
Inner Gates
70
1
40
0
41
0
66
1
0
VERTEX
8
Inner Gates
10
39.713
20
-68.357
0
VERTEX
8
Inner Gates
10
39.694
20
-68.356
0
VERTEX
8
Inner Gates
10
39.675
20
-68.351
0
VERTEX
8
Inner Gates
10
39.657
20
-68.342
0
VERTEX
8
Inner Gates
10
39.642
20
-68.33
0
VERTEX
8
Inner Gates
10
39.629
20
-68.315
0
VERTEX
8
Inner Gates
10
39.619
20
-68.298
0
VERTEX
8
Inner Gates
10
39.613
20
-68.279
0
VERTEX
8
Inner Gates
10
36.258
20
-40.586
0
VERTEX
8
Inner Gates
10
31.43
20
-23.124
0
VERTEX
8
Inner Gates
10
19.895
20
-13.209
0
VERTEX
8
Inner Gates
10
14.827
20
-12.048
0
VERTEX
8
Inner Gates
10
14.809
20
-12.04
0
VERTEX
8
Inner Gates
10
14.807
20
-12.039
0
VERTEX
8
Inner Gates
10
14.601
20
-11.993
0
VERTEX
8
Inner Gates
10
11.233
20
-11.993
0
VERTEX
8
Inner Gates
10
11.192
20
-11.966
0
VERTEX
8
Inner Gates
10
9.49
20
-11.966
0
VERTEX
8
Inner Gates
10
9.462
20
-11.993
0
VERTEX
8
Inner Gates
10
5.806
20
-11.993
0
VERTEX
8
Inner Gates
10
5.806
20
-11.893
0
VERTEX
8
Inner Gates
10
9.462
20
-11.893
0
VERTEX
8
Inner Gates
10
9.462
20
-11.894
0
VERTEX
8
Inner Gates
10
9.488
20
-11.916
0
VERTEX
8
Inner Gates
10
11.191
20
-11.916
0
VERTEX
8
Inner Gates
10
11.233
20
-11.893
0
VERTEX
8
Inner Gates
10
14.6
20
-11.893
0
VERTEX
8
Inner Gates
10
14.849
20
-11.853
0
VERTEX
8
Inner Gates
10
14.872
20
-11.853
0
VERTEX
8
Inner Gates
10
19.987
20
-13.025
0
VERTEX
8
Inner Gates
10
31.606
20
-23.012
0
VERTEX
8
Inner Gates
10
36.454
20
-40.548
0
VERTEX
8
Inner Gates
10
39.811
20
-68.255
0
VERTEX
8
Inner Gates
10
39.81
20
-68.274
0
VERTEX
8
Inner Gates
10
39.805
20
-68.293
0
VERTEX
8
Inner Gates
10
39.796
20
-68.311
0
VERTEX
8
Inner Gates
10
39.784
20
-68.326
0
VERTEX
8
Inner Gates
10
39.769
20
-68.339
0
VERTEX
8
Inner Gates
10
39.752
20
-68.349
0
VERTEX
8
Inner Gates
10
39.733
20
-68.355
0
SEQEND
0
POLYLINE
8
Inner Gates
70
1
40
0
41
0
66
1
0
VERTEX
8
Inner Gates
10
10.217
20
-11.866
0
VERTEX
8
Inner Gates
10
10.217
20
-9.099
0
VERTEX
8
Inner Gates
10
10.4
20
-9.099
0
VERTEX
8
Inner Gates
10
10.4
20
-10.384
0
VERTEX
8
Inner Gates
10
10.517
20
-10.866
0
VERTEX
8
Inner Gates
10
10.517
20
-11.866
0
SEQEND
0
POLYLINE
8
Inner Gates
70
1
40
0
41
0
66
1
0
VERTEX
8
Inner Gates
10
74.726
20
-7.802
0
VERTEX
8
Inner Gates
10
74.707
20
-7.798
0
VERTEX
8
Inner Gates
10
53.111
20
1.672
0
VERTEX
8
Inner Gates
10
21.147
20
1.006
0
VERTEX
8
Inner Gates
10
20.575
20
1.006
0
VERTEX
8
Inner Gates
10
20.556
20
1.01
0
VERTEX
8
Inner Gates
10
20.538
20
1.017
0
VERTEX
8
Inner Gates
10
20.521
20
1.028
0
VERTEX
8
Inner Gates
10
20.507
20
1.042
0
VERTEX
8
Inner Gates
10
20.496
20
1.059
0
VERTEX
8
Inner Gates
10
20.489
20
1.077
0
VERTEX
8
Inner Gates
10
20.485
20
1.096
0
VERTEX
8
Inner Gates
10
20.485
20
1.116
0
VERTEX
8
Inner Gates
10
20.489
20
1.135
0
VERTEX
8
Inner Gates
10
20.496
20
1.153
0
VERTEX
8
Inner Gates
10
20.507
20
1.17
0
VERTEX
8
Inner Gates
10
20.521
20
1.184
0
VERTEX
8
Inner Gates
10
20.538
20
1.195
0
VERTEX
8
Inner Gates
10
20.556
20
1.202
0
VERTEX
8
Inner Gates
10
20.575
20
1.206
0
VERTEX
8
Inner Gates
10
21.145
20
1.206
0
VERTEX
8
Inner Gates
10
53.151
20
1.872
0
VERTEX
8
Inner Gates
10
74.787
20
-7.614
0
VERTEX
8
Inner Gates
10
74.803
20
-7.626
0
VERTEX
8
Inner Gates
10
74.817
20
-7.64
0
VERTEX
8
Inner Gates
10
74.828
20
-7.656
0
VERTEX
8
Inner Gates
10
74.835
20
-7.675
0
VERTEX
8
Inner Gates
10
74.838
20
-7.694
0
VERTEX
8
Inner Gates
10
74.838
20
-7.714
0
VERTEX
8
Inner Gates
10
74.834
20
-7.733
0
VERTEX
8
Inner Gates
10
74.826
20
-7.751
0
VERTEX
8
Inner Gates
10
74.814
20
-7.767
0
VERTEX
8
Inner Gates
10
74.8
20
-7.781
0
VERTEX
8
Inner Gates
10
74.784
20
-7.792
0
VERTEX
8
Inner Gates
10
74.765
20
-7.799
0
VERTEX
8
Inner Gates
10
74.746
20
-7.802
0
SEQEND
0
ENDSEC
0
EOF
